<svg width="426" height="79" xmlns="http://www.w3.org/2000/svg"><g fill-rule="nonzero" fill="none"><path d="M157.76 53.56c.053 2.453.707 4.227 1.96 5.32 1.253 1.093 3.053 1.64 5.4 1.64 4.96 0 9.387-.16 13.28-.48l2.24-.24.16 7.92c-6.133 1.493-11.68 2.24-16.64 2.24-6.027 0-10.4-1.6-13.12-4.8-2.72-3.2-4.08-8.4-4.08-15.6 0-14.347 5.893-21.52 17.68-21.52 11.627 0 17.44 6.027 17.44 18.08l-.8 7.44h-23.52zm13.76-8.16c0-3.2-.507-5.427-1.52-6.68-1.013-1.253-2.787-1.88-5.32-1.88-2.533 0-4.32.653-5.36 1.96s-1.587 3.507-1.64 6.6h13.84zm14.4-16.4h11.44l6.4 12.4 6.48-12.4h11.44l-11.36 19.6L221.68 69h-11.44l-6.48-12.24-6.4 12.24h-11.44l10.96-20.08L185.92 29zm49.76 24.56c.053 2.453.707 4.227 1.96 5.32 1.253 1.093 3.053 1.64 5.4 1.64 4.96 0 9.387-.16 13.28-.48l2.24-.24.16 7.92c-6.133 1.493-11.68 2.24-16.64 2.24-6.027 0-10.4-1.6-13.12-4.8-2.72-3.2-4.08-8.4-4.08-15.6 0-14.347 5.893-21.52 17.68-21.52 11.627 0 17.44 6.027 17.44 18.08l-.8 7.44h-23.52zm13.76-8.16c0-3.2-.507-5.427-1.52-6.68-1.013-1.253-2.787-1.88-5.32-1.88-2.533 0-4.32.653-5.36 1.96s-1.587 3.507-1.64 6.6h13.84zm30.88-7.28V69H269.6V38.12h-4.32V29h4.32v-1.76c0-5.76.853-9.733 2.56-11.92 1.707-2.187 4.747-3.28 9.12-3.28 1.92 0 4.4.267 7.44.8l1.68.24-.16 8.72a134.02 134.02 0 00-5.92-.16c-1.6 0-2.667.427-3.2 1.28-.533.853-.8 2.32-.8 4.4V29H290v9.12h-9.68zm17.76-4.56c2.827-3.68 7.547-5.52 14.16-5.52s11.333 1.827 14.16 5.48c2.827 3.653 4.24 8.787 4.24 15.4 0 14.027-6.133 21.04-18.4 21.04s-18.4-7.013-18.4-21.04c0-6.613 1.413-11.733 4.24-15.36zm8.24 24.4c1.12 1.92 3.093 2.88 5.92 2.88s4.787-.96 5.88-2.88 1.64-4.933 1.64-9.04c0-4.107-.547-7.093-1.64-8.96-1.093-1.867-3.053-2.8-5.88-2.8s-4.787.933-5.88 2.8c-1.093 1.867-1.64 4.853-1.64 8.96 0 4.107.533 7.12 1.6 9.04zM338.48 69V29h10.64v4.24c4.48-2.667 8.747-4.4 12.8-5.2v10.8c-4.32.907-8.027 1.84-11.12 2.8l-1.6.56V69h-10.72zm40.48 0h-10.72V29h10.64v2.24c3.68-2.133 6.827-3.2 9.44-3.2 4.32 0 7.653 1.253 10 3.76 4.907-2.507 9.387-3.76 13.44-3.76 5.28 0 8.947 1.533 11 4.6 2.053 3.067 3.08 7.96 3.08 14.68V69h-10.72V47.64c0-3.413-.373-5.933-1.12-7.56-.747-1.627-2.24-2.44-4.48-2.44-1.707 0-3.787.373-6.24 1.12l-1.2.4c.213 4 .32 7.04.32 9.12V69h-10.72V48.44c0-3.947-.347-6.733-1.04-8.36-.693-1.627-2.213-2.44-4.56-2.44-2.08 0-4.133.373-6.16 1.12l-.96.32V69z" fill="#5F656A"/><path d="M115 79H5c-2.75 0-5-2.25-5-5V21.5c0-2.75 2.25-5 5-5h110c2.75 0 5 2.25 5 5V74c0 2.75-2.25 5-5 5z" fill="#D9DCE1"/><path d="M70.5 57L61 62c-.75.5-1.75-.25-1.75-1V50.25c0-.5 0-.75.25-1.25L87.75 3.5c2-3.25 6.25-4.25 9.5-2.25s4.25 6.25 2.25 9.5l-28 45.5c-.25.5-.75.75-1 .75z" fill="#56AAFF"/><path d="M97.5 1.25c-3.25-2-7.5-1-9.5 2.25l-3.5 5.75L96 16.5l3.5-5.75c2.25-3.25 1.25-7.5-2-9.5z" fill="#0478ED"/></g></svg>